<svg width="127" height="152" viewBox="0 0 127 152" fill="none" xmlns="http://www.w3.org/2000/svg">
<path d="M80.113 46.5V1H46.8747V46.5C46.8747 49.4485 46.0948 52.3442 44.6145 54.8917L3.29088 125.933C-3.17398 137.05 4.81153 151 17.6415 151H109.346C122.168 151 130.162 137.05 123.697 125.933L82.3733 54.8917C80.8915 52.3417 80.1115 49.443 80.113 46.4917V46.5Z" fill="#1D3557"/>
<path d="M88.1255 102.159L55.0904 136.022C54.1739 136.962 52.6498 135.877 53.2441 134.708L65.0038 111.575C65.391 110.814 64.8363 109.914 63.9802 109.914H39.2432C38.2243 109.914 37.7107 108.689 38.4264 107.966L69.0641 77.0211C69.9527 76.1233 71.4312 77.1101 70.9374 78.2714L62.1509 98.925C61.8276 99.685 62.3934 100.526 63.2216 100.516L87.2885 100.218C88.3103 100.205 88.8378 101.429 88.1255 102.159Z" fill="#F5F5F5"/>
<path d="M80.113 46.5L81.113 46.5V46.5H80.113ZM46.8747 46.5L45.8747 46.5L45.8747 46.5L46.8747 46.5ZM44.6145 54.8917L45.4789 55.3945L45.4791 55.3941L44.6145 54.8917ZM3.29088 125.933L2.42648 125.431L2.42643 125.431L3.29088 125.933ZM123.697 125.933L124.561 125.431L124.561 125.431L123.697 125.933ZM82.3733 54.8917L81.5086 55.3941L81.5089 55.3945L82.3733 54.8917ZM80.113 46.4917H81.113L79.113 46.4912L80.113 46.4917ZM30.2555 0C29.7032 0 29.2555 0.447715 29.2555 1C29.2555 1.55228 29.7032 2 30.2555 2V0ZM96.7322 2C97.2845 2 97.7322 1.55228 97.7322 1C97.7322 0.447715 97.2845 0 96.7322 0V2ZM46.8747 46.4917L45.8747 46.4917L45.8747 46.4922L46.8747 46.4917ZM88.1255 102.159L87.4098 101.461L87.4097 101.461L88.1255 102.159ZM55.0904 136.022L54.3746 135.324L54.3746 135.324L55.0904 136.022ZM53.2441 134.708L52.3526 134.254L52.3526 134.254L53.2441 134.708ZM65.0038 111.575L64.1125 111.122L64.1124 111.122L65.0038 111.575ZM38.4264 107.966L37.7157 107.263L37.7156 107.263L38.4264 107.966ZM69.0641 77.0211L69.7747 77.7246L69.7748 77.7245L69.0641 77.0211ZM70.9374 78.2714L71.8576 78.6629L71.8576 78.6628L70.9374 78.2714ZM62.1509 98.925L61.2307 98.5335L61.2307 98.5336L62.1509 98.925ZM63.2216 100.516L63.2092 99.5157L63.2092 99.5157L63.2216 100.516ZM87.2885 100.218L87.2762 99.2179L87.2761 99.2179L87.2885 100.218ZM81.113 46.5V1H79.113V46.5H81.113ZM80.113 0H46.8747V2H80.113V0ZM45.8747 1V46.5H47.8747V1H45.8747ZM45.8747 46.5C45.8747 49.2721 45.1414 51.9945 43.7498 54.3892L45.4791 55.3941C47.0481 52.6939 47.8747 49.6248 47.8747 46.5L45.8747 46.5ZM2.42643 125.431C-4.42331 137.209 4.03475 152 17.6415 152V150C5.58832 150 -1.92465 136.891 4.15533 126.436L2.42643 125.431ZM17.6415 152H109.346V150H17.6415V152ZM109.346 152C122.944 152 131.411 137.209 124.561 125.431L122.832 126.436C128.912 136.891 121.392 150 109.346 150V152ZM83.2379 54.3892C81.845 51.9922 81.1116 49.2669 81.113 46.4922L79.113 46.4912C79.1115 49.619 79.9381 52.6913 81.5086 55.3941L83.2379 54.3892ZM79.113 46.4917V46.5H81.113V46.4917H79.113ZM30.2555 2H46.8747V0H30.2555V2ZM96.7322 0H80.113V2H96.7322V0ZM79.113 46.5C79.113 49.6248 79.9396 52.6939 81.5086 55.3941L83.2379 54.3892C81.8463 51.9945 81.113 49.2721 81.113 46.5L79.113 46.5ZM45.4791 55.3941C47.0496 52.6913 47.8763 49.619 47.8747 46.4912L45.8747 46.4922C45.8761 49.2669 45.1427 51.9922 43.7498 54.3892L45.4791 55.3941ZM47.8747 46.4917V1H45.8747V46.4917H47.8747ZM87.4097 101.461L54.3746 135.324L55.8062 136.721L88.8413 102.858L87.4097 101.461ZM54.3746 135.324C54.3431 135.356 54.3211 135.368 54.3116 135.372C54.3019 135.377 54.294 135.379 54.2856 135.379C54.2657 135.38 54.2254 135.373 54.1807 135.341C54.1361 135.309 54.1176 135.274 54.1127 135.257C54.1106 135.25 54.1097 135.243 54.1106 135.234C54.1115 135.225 54.1153 135.201 54.1355 135.161L52.3526 134.254C51.2282 136.467 54.1071 138.463 55.8063 136.721L54.3746 135.324ZM54.1355 135.161L65.8953 112.028L64.1124 111.122L52.3526 134.254L54.1355 135.161ZM65.8952 112.029C66.6231 110.597 65.5772 108.914 63.9802 108.914V110.914C64.0954 110.914 64.1588 111.031 64.1125 111.122L65.8952 112.029ZM63.9802 108.914H39.2432V110.914H63.9802V108.914ZM39.2432 108.914C39.1958 108.914 39.1724 108.902 39.1584 108.892C39.14 108.879 39.12 108.857 39.1065 108.825C39.0931 108.793 39.0913 108.763 39.0948 108.742C39.0975 108.727 39.1045 108.703 39.1371 108.67L37.7156 107.263C36.3707 108.622 37.3421 110.914 39.2432 110.914V108.914ZM39.137 108.67L69.7747 77.7246L68.3535 76.3175L37.7157 107.263L39.137 108.67ZM69.7748 77.7245C69.8038 77.6953 69.8245 77.684 69.8342 77.6795C69.8443 77.675 69.8528 77.6731 69.8619 77.6725C69.8827 77.6712 69.9214 77.6774 69.964 77.7058C70.0066 77.7343 70.0261 77.7669 70.0322 77.7847C70.0348 77.7924 70.0362 77.8001 70.0358 77.8101C70.0355 77.8198 70.0331 77.8426 70.0171 77.8801L71.8576 78.6628C72.7901 76.4699 70.0044 74.6495 68.3534 76.3176L69.7748 77.7245ZM70.0172 77.88L61.2307 98.5335L63.0711 99.3164L71.8576 78.6629L70.0172 77.88ZM61.2307 98.5336C60.6231 99.9623 61.6883 101.535 63.234 101.516L63.2092 99.5157C63.0985 99.5171 63.0322 99.4078 63.0711 99.3163L61.2307 98.5336ZM63.234 101.516L87.3009 101.218L87.2761 99.2179L63.2092 99.5157L63.234 101.516ZM87.3008 101.218C87.3486 101.217 87.3721 101.229 87.3862 101.239C87.4048 101.251 87.4251 101.274 87.4389 101.306C87.4528 101.338 87.4548 101.367 87.4514 101.388C87.449 101.404 87.4422 101.428 87.4098 101.461L88.8412 102.858C90.1806 101.485 89.1819 99.1944 87.2762 99.2179L87.3008 101.218ZM43.7501 54.3889L2.42648 125.431L4.15528 126.436L45.4789 55.3945L43.7501 54.3889ZM124.561 125.431L83.2377 54.3889L81.5089 55.3945L122.832 126.436L124.561 125.431Z" fill="#1D3557"/>
</svg>
