<svg width="148" height="150" viewBox="0 0 148 150" fill="none" xmlns="http://www.w3.org/2000/svg">
<path d="M73.1145 98.9287C69.372 89.9273 73.6622 79.5528 82.6379 75.7997C91.6137 72.0466 101.959 76.3489 105.701 85.3503C109.444 94.3518 105.153 104.726 96.1776 108.479C87.2019 112.233 76.8569 107.93 73.1145 98.9287ZM144.616 104.909L136.34 101.492C137.557 95.4197 137.588 89.0424 136.34 82.7567L144.586 79.3087C146.594 78.4849 147.568 76.1658 146.716 74.1215L142.608 64.1741C141.787 62.1603 139.474 61.1838 137.436 62.0382L129.16 65.4862C125.6 60.1464 121.066 55.6609 115.924 52.2434L119.332 43.9438C120.154 41.93 119.21 39.611 117.202 38.7871L107.314 34.6373C105.306 33.8134 102.993 34.7593 102.172 36.7732L98.7639 45.0728C95.1127 44.3405 91.3399 44.0354 87.567 44.1879C86.8063 49.8634 82.3641 54.3489 76.7656 55.1727C76.7048 55.2948 76.6744 55.3863 76.6135 55.5084C78.1957 57.6748 79.078 60.2989 79.078 63.0757C79.078 64.2352 78.9259 65.3336 78.6217 66.4321C78.6825 66.4016 78.7129 66.3711 78.7738 66.3711C92.9525 60.4515 109.291 67.2255 115.194 81.4752C121.097 95.6943 114.342 112.08 100.133 118C85.9544 123.919 69.6154 117.145 63.7127 102.895C60.4875 95.0536 61.0656 86.6014 64.6255 79.5833C61.2178 80.1936 57.597 79.4613 54.7065 77.2948C54.5848 77.3559 54.4936 77.3864 54.3719 77.4169C53.4286 83.5501 48.1345 88.2491 41.7754 88.2491C41.4102 92.643 41.6232 97.1285 42.536 101.614L34.2905 105.062C32.2823 105.886 31.3087 108.205 32.1606 110.249L36.2682 120.196C37.0897 122.21 39.4021 123.187 41.4407 122.332L49.7166 118.884C53.2765 124.224 57.81 128.71 62.9521 132.127L59.5443 140.427C58.7228 142.441 59.666 144.76 61.6742 145.584L71.6236 149.703C73.6317 150.527 75.9441 149.581 76.7656 147.567L80.1734 139.267C86.2282 140.488 92.5873 140.518 98.8856 139.267L102.324 147.536C103.145 149.55 105.458 150.527 107.496 149.672L117.415 145.553C119.423 144.729 120.397 142.41 119.545 140.366L116.107 132.097C121.431 128.527 125.904 123.98 129.312 118.823L137.588 122.241C139.596 123.065 141.908 122.119 142.73 120.105L146.837 110.127C147.598 108.052 146.625 105.764 144.616 104.909ZM8.45852 45.5L3.31647 45.4695C1.49089 45.4695 0 43.9743 0 42.113L0.0304264 36.4986C0.0304264 34.6678 1.52132 33.1727 3.37732 33.1727L8.51937 33.2032C9.31046 29.2364 10.8926 25.4223 13.2355 21.9743L9.64515 18.3432C8.36724 17.0311 8.36724 14.9257 9.67557 13.6442L13.631 9.70796C14.9393 8.4264 17.0387 8.4264 18.3167 9.73847L21.9374 13.4001C25.406 11.0811 29.2397 9.55539 33.1951 8.79256L33.2256 3.63582C33.2256 1.80502 34.7164 0.309873 36.5724 0.309873L42.1709 0.340386C43.9965 0.340386 45.4874 1.83554 45.4874 3.69684L45.4569 8.85359C49.4124 9.64693 53.2157 11.2336 56.6538 13.5831L60.305 9.95206C61.6133 8.67051 63.7127 8.67051 64.9906 9.98258L68.9156 13.9493C70.1935 15.2614 70.1935 17.3668 68.8852 18.6483L65.2341 22.2794C67.5465 25.7579 69.0678 29.6026 69.8284 33.5693L74.9705 33.5998C76.7961 33.5998 78.287 35.095 78.287 36.9563L78.2565 42.5707C78.2565 44.4015 76.7656 45.8967 74.9096 45.8967L69.7676 45.8662C68.9765 49.8329 67.3943 53.6471 65.0515 57.0951L68.6722 60.7566C69.9501 62.0687 69.9501 64.1741 68.6418 65.4557L64.6864 69.3919C63.378 70.6735 61.2786 70.6735 60.0007 69.3614L56.38 65.6998C52.9114 68.0188 49.0777 69.5445 45.1223 70.3073L45.0918 75.464C45.0918 77.2948 43.6009 78.79 41.7449 78.79L36.1465 78.7595C34.3209 78.7595 32.83 77.2643 32.83 75.403L32.8604 70.2463C28.905 69.4529 25.1017 67.8662 21.6635 65.5167L18.0124 69.1478C16.7041 70.4294 14.6046 70.4293 13.3267 69.1173L9.40174 65.1506C8.12383 63.8385 8.12383 61.7331 9.43216 60.4515L13.0833 56.8204C10.7405 53.3114 9.21918 49.4667 8.45852 45.5ZM28.5703 50.016C34.3513 55.8745 43.7531 55.9356 49.5949 50.138C55.4368 44.3405 55.4976 34.9119 49.7166 29.0534C43.9356 23.1948 34.5339 23.1338 28.692 28.9313C22.8197 34.7288 22.7893 44.1574 28.5703 50.016Z" fill="#1D3557"/>
<path d="M144.888 10.13C147.812 11.7198 147.812 15.8351 144.888 17.4249L127.236 27.0237C124.395 28.5689 120.904 26.5578 120.904 23.3763V4.17855C120.904 0.997044 124.395 -1.01399 127.236 0.531091L144.888 10.13Z" fill="#1D3557"/>
</svg>
