<svg width="170" height="150" viewBox="0 0 170 150" fill="none" xmlns="http://www.w3.org/2000/svg">
<path d="M94.999 15.678L97.8732 18.6389C116.216 37.5358 140.294 49.8349 166.356 53.6199V53.6199" stroke="#1D3557" stroke-width="6" stroke-linecap="round"/>
<path d="M84.8291 56.356L87.7032 59.3169C106.046 78.2138 130.124 90.5128 156.186 94.2979V94.2979" stroke="#1D3557" stroke-width="6" stroke-linecap="round"/>
<path d="M23.8161 56.3558V56.3558C43.9759 77.1245 70.6669 90.3256 99.4085 93.7432L104.072 94.2977" stroke="#1D3557" stroke-width="6" stroke-linecap="round"/>
<path d="M13.6488 15.6775V15.6775C33.771 36.4073 60.588 49.3359 89.3388 52.168L104.074 53.6194" stroke="#1D3557" stroke-width="6" stroke-linecap="round"/>
<path fill-rule="evenodd" clip-rule="evenodd" d="M98.3052 69.9152V59.7458C98.3052 57.8735 96.7874 56.3559 94.9154 56.3559H94.1738V49.5763C94.1738 47.704 92.656 46.1864 90.784 46.1864H83.7925C81.9205 46.1864 80.4026 47.704 80.4026 49.5763V56.3559H65.2543V44.4915L86.8645 32.6271H105.085C106.957 32.6271 108.475 31.1095 108.475 29.2373V19.0678C108.475 17.1956 106.957 15.678 105.085 15.678H103.39V8.8983C103.39 7.02608 101.872 5.50847 100 5.50847H89.8306C87.9586 5.50847 86.4408 7.02608 86.4408 8.8983V15.678H65.2543V3.38983C65.2543 1.5176 63.7365 0 61.8645 0H46.6102C44.7382 0 43.2204 1.5176 43.2204 3.38983V15.678H22.0339V8.8983C22.0339 7.02608 20.5161 5.50847 18.6441 5.50847H8.47459C6.60256 5.50847 5.08475 7.02608 5.08475 8.8983V15.678H3.38983C1.51781 15.678 0 17.1956 0 19.0678V29.2373C0 31.1095 1.51781 32.6271 3.38983 32.6271H21.6102L43.2204 44.4915V56.3559H28.0721V49.5763C28.0721 47.704 26.5543 46.1864 24.6822 46.1864H17.6907C15.8187 46.1864 14.3009 47.704 14.3009 49.5763V56.3559H13.5593C11.6873 56.3559 10.1695 57.8735 10.1695 59.7458V69.9152C10.1695 71.7875 11.6873 73.3051 13.5593 73.3051H22.0339L43.2204 83.8983V146.61C43.2204 148.482 44.7382 150 46.6102 150H61.8645C63.7365 150 65.2543 148.482 65.2543 146.61V83.8983L86.4408 73.3051H94.9154C96.7874 73.3051 98.3052 71.7875 98.3052 69.9152ZM65.2543 75.8475V73.3051H70.3391L65.2543 75.8475ZM43.2204 73.3051V75.8475L38.1356 73.3051H43.2204ZM43.2204 38.5593V32.6271H32.4153L43.2204 38.5593ZM65.2543 32.6271V38.5593L76.0594 32.6271H65.2543Z" fill="#1D3557"/>
</svg>
